<svg width="512" height="512" viewBox="0 0 512 512" fill="none" xmlns="http://www.w3.org/2000/svg">
  <rect width="512" height="512" rx="64" fill="#2563eb"/>
  <path d="M256 128c-70.69 0-128 57.31-128 128s57.31 128 128 128 128-57.31 128-128-57.31-128-128-128zm0 32c53.02 0 96 42.98 96 96s-42.98 96-96 96-96-42.98-96-96 42.98-96 96-96z" fill="white"/>
  <circle cx="256" cy="256" r="48" fill="white"/>
  <path d="M204 204h20v20h-20zM236 204h20v20h-20zM268 204h20v20h-20zM300 204h20v20h-20z" fill="#2563eb"/>
  <path d="M204 288h20v20h-20zM236 288h20v20h-20zM268 288h20v20h-20zM300 288h20v20h-20z" fill="#2563eb"/>
  <path d="M176 176h32v32h-32zM208 208h32v32h-32zM240 240h32v32h-32zM272 272h32v32h-32zM304 304h32v32h-32z" fill="#60a5fa" opacity="0.3"/>
</svg>